<svg width="47" height="48" viewBox="0 0 47 48" fill="none" xmlns="http://www.w3.org/2000/svg">
<path fill-rule="evenodd" clip-rule="evenodd" d="M23.8165 43.0378C25.7495 43.0378 27.3165 41.4782 27.3165 39.5545C27.3165 37.6307 25.7495 36.0712 23.8165 36.0712C21.8835 36.0712 20.3165 37.6307 20.3165 39.5545C20.3165 41.4782 21.8835 43.0378 23.8165 43.0378ZM23.8166 41.4892C24.8905 41.4892 25.761 40.6228 25.761 39.5541C25.761 38.4853 24.8905 37.6189 23.8166 37.6189C22.7427 37.6189 21.8721 38.4853 21.8721 39.5541C21.8721 40.6228 22.7427 41.4892 23.8166 41.4892Z" fill="#FFB71A"/>
<path fill-rule="evenodd" clip-rule="evenodd" d="M35.8165 43.0378C37.7495 43.0378 39.3165 41.4782 39.3165 39.5545C39.3165 37.6307 37.7495 36.0712 35.8165 36.0712C33.8835 36.0712 32.3165 37.6307 32.3165 39.5545C32.3165 41.4782 33.8835 43.0378 35.8165 43.0378ZM35.8166 41.4892C36.8905 41.4892 37.761 40.6228 37.761 39.5541C37.761 38.4853 36.8905 37.6189 35.8166 37.6189C34.7427 37.6189 33.8721 38.4853 33.8721 39.5541C33.8721 40.6228 34.7427 41.4892 35.8166 41.4892Z" fill="#FFB71A"/>
<path d="M1.31621 12.6864L6.98549 12.6855C7.792 12.6854 8.52064 13.1665 8.83463 13.9065L17.2988 33.8546C17.6127 34.5944 18.3412 35.0755 19.1476 35.0755L44.8165 35.0759" stroke="#FFB71A" stroke-width="2.5" stroke-linecap="round"/>
<path d="M19.6249 25.3775C19.3077 24.1147 20.2626 22.8903 21.5647 22.8903H30.0049C30.5545 22.8903 31.0001 23.3358 31.0001 23.8855C31.0001 24.4351 30.5545 24.8807 30.0049 24.8807H25.9953C25.4457 24.8807 25.0001 25.3263 25.0001 25.8759C25.0001 26.4256 25.4457 26.8712 25.9953 26.8712H37.0049C37.5545 26.8712 38.0001 27.3167 38.0001 27.8664C38.0001 28.416 37.5545 28.8616 37.0049 28.8616H31.9953C31.4457 28.8616 31.0001 29.3072 31.0001 29.8568C31.0001 30.4065 31.4457 30.8521 31.9953 30.8521H43.0049C43.5545 30.8521 44.0001 31.2976 44.0001 31.8473C44.0001 32.3969 43.5545 32.8425 43.0049 32.8425H23.0599C22.143 32.8425 21.3435 32.219 21.1201 31.3298L19.6249 25.3775Z" fill="#064BEF"/>
<path d="M43.3753 22.3934C43.6925 23.6562 42.7377 24.8806 41.4356 24.8806H32.9953C32.4457 24.8806 32.0001 24.435 32.0001 23.8854C32.0001 23.3357 32.4457 22.8902 32.9953 22.8902H37.0049C37.5545 22.8902 38.0001 22.4446 38.0001 21.8949C38.0001 21.3453 37.5545 20.8997 37.0049 20.8997H25.9953C25.4457 20.8997 25.0001 20.4541 25.0001 19.9045C25.0001 19.3548 25.4457 18.9093 25.9953 18.9093H31.0049C31.5545 18.9093 32.0001 18.4637 32.0001 17.914C32.0001 17.3644 31.5545 16.9188 31.0049 16.9188H19.9953C19.4457 16.9188 19.0001 16.4732 19.0001 15.9236C19.0001 15.3739 19.4457 14.9284 19.9953 14.9284L39.9404 14.9284C40.8573 14.9284 41.6567 15.5518 41.8801 16.4411L43.3753 22.3934Z" fill="#EFAE1A"/>
</svg>
